<svg version="1.0" xmlns="http://www.w3.org/2000/svg" width="1333.333" height="1333.333" viewBox="0 0 1000 1000"><path d="M448.2 51.5c-6.3 1.8-12.9 6.1-16.3 10.7-1.4 1.8-67 108.5-145.7 237.1-153.5 250.4-147.3 239.9-145.7 250.4.6 3.9 73.1 194.4 78.6 206.5 4.5 9.7 5.4 10.3 78.9 46.9 63.5 31.7 114.5 57 240.9 119.6 31 15.4 51.3 24.8 54.5 25.5 6.9 1.3 14.6-.2 21.7-4.5 5.2-3.1 10.1-9.9 124.2-172.7 95.8-136.8 119.1-170.5 120.3-174.9 2.9-9.6.8-19.5-5.9-28.2-1.8-2.4-86.2-116.9-187.6-254.4-101.4-137.5-186-251.7-188-253.8-7.4-7.7-19.5-11.1-29.9-8.2zM629 367.9C712.7 481.4 780.8 574.6 780.3 575c-1.3 1.2-181.2 80-182.5 80-1.9 0-195-67.8-195.8-68.7-.4-.4 4-28 9.7-61.3 5.7-33.3 22-128.8 36.3-212.2 14.3-83.4 26-152.3 26-153 0-.9.4-.8 1.4.2.8.8 69.9 94.4 153.6 207.9zm-246.5-45.8c-36.9 219.4-45.7 270.5-46.8 272.1-3.7 5.3-78.2 87.6-78.8 87-.3-.4-12-30.2-25.8-66.3l-25.2-65.5 94.8-154.8c52.1-85.1 94.9-154.3 95-153.9.2.5-5.8 37.1-13.2 81.4zM469.9 677c51.8 18.1 94.6 33.2 95.1 33.5 1.2.8 1.4 155.5.2 155.5S298.7 734.1 297.6 733c-.8-.8 11.9-15.4 66.8-76.8 6-6.7 11.1-12.2 11.2-12.2.1 0 42.5 14.8 94.3 33zM739 662.5c0 .5-103.3 148.3-107.2 153.4-1.8 2.3-1.8 1-1.6-52l.3-54.4 53.5-23.6c29.4-13.1 53.8-23.7 54.3-23.8.4-.1.7.1.7.4z"/></svg>