<?xml version="1.0" standalone="no"?>
<!DOCTYPE svg PUBLIC "-//W3C//DTD SVG 20010904//EN"
 "http://www.w3.org/TR/2001/REC-SVG-20010904/DTD/svg10.dtd">
<svg version="1.0" xmlns="http://www.w3.org/2000/svg"
 width="1000.000000pt" height="1000.000000pt" viewBox="0 0 1000.000000 1000.000000"
 preserveAspectRatio="xMidYMid meet">
<metadata>
Created by potrace 1.11, written by Peter Selinger 2001-2013
</metadata>
<g transform="translate(0.000000,1000.000000) scale(0.100000,-0.100000)"
fill="#000000" stroke="none">
<path d="M4482 9485 c-63 -18 -129 -61 -163 -107 -14 -18 -670 -1085 -1457
-2371 -1535 -2504 -1473 -2399 -1457 -2504 6 -39 731 -1944 786 -2065 45 -97
54 -103 789 -469 635 -317 1145 -570 2409 -1196 310 -154 513 -248 545 -255
69 -13 146 2 217 45 52 31 101 99 1242 1727 958 1368 1191 1705 1203 1749 29
96 8 195 -59 282 -18 24 -862 1169 -1876 2544 -1014 1375 -1860 2517 -1880
2538 -74 77 -195 111 -299 82z m1808 -3164 c837 -1135 1518 -2067 1513 -2071
-13 -12 -1812 -800 -1825 -800 -19 0 -1950 678 -1958 687 -4 4 40 280 97 613
57 333 220 1288 363 2122 143 834 260 1523 260 1530 0 9 4 8 14 -2 8 -8 699
-944 1536 -2079z m-2465 458 c-369 -2194 -457 -2705 -468 -2721 -37 -53 -782
-876 -788 -870 -3 4 -120 302 -258 663 l-252 655 948 1548 c521 851 949 1543
950 1539 2 -5 -58 -371 -132 -814z m874 -3549 c518 -181 946 -332 951 -335 12
-8 14 -1555 2 -1555 -12 0 -2665 1319 -2676 1330 -8 8 119 154 668 768 60 67
111 122 112 122 1 0 425 -148 943 -330z m2691 145 c0 -5 -1033 -1483 -1072
-1534 -18 -23 -18 -10 -16 520 l3 544 535 236 c294 131 538 237 543 238 4 1 7
-1 7 -4z"/>
</g>
</svg>
